<svg aria-hidden="true" style="position: absolute; width: 0; height: 0; overflow: hidden;" version="1.1" xmlns="http://www.w3.org/2000/svg" xmlns:xlink="http://www.w3.org/1999/xlink">
<defs>
<symbol id="icon-home" viewBox="0 0 29 32">
<path fill="#fb0" style="fill: var(--color1, #fb0)" d="M0.603 9.11l13.327-8.884c0.212-0.142 0.473-0.226 0.753-0.226s0.541 0.084 0.758 0.229l-0.005-0.003 13.327 8.884c0.343 0.246 0.565 0.644 0.565 1.094 0 0.012-0 0.024-0 0.037l0-0.002v20.445c0 0.002 0 0.005 0 0.008 0 0.723-0.586 1.309-1.309 1.309-0.003 0-0.006 0-0.009-0h-9.793c-0.724-0.009-1.308-0.593-1.317-1.316v-9.338h-4.438v9.337c-0.014 0.73-0.61 1.317-1.343 1.317-0.005 0-0.009-0-0.014-0h-9.788c-0.724-0.009-1.308-0.593-1.317-1.316v-20.444c-0-0.011-0.001-0.024-0.001-0.037 0-0.458 0.239-0.86 0.598-1.089l0.005-0.003zM14.683 2.936l-12.010 8.027v18.378h7.116v-9.35c0.009-0.724 0.593-1.308 1.316-1.317h7.112c0.004-0 0.009-0 0.013-0 0.733 0 1.328 0.587 1.343 1.316l0 0.001v9.337h7.116v-18.365l-12.005-8.025z"></path>
</symbol>
<symbol id="icon-support" viewBox="0 0 27 32">
<path fill="#fb0" style="fill: var(--color1, #fb0)" d="M23.743 24.217h0.433c1.402-0.004 2.538-1.14 2.542-2.541v-6.678c-0.004-1.402-1.14-2.538-2.541-2.542h-0.433c-1.402 0.004-2.538 1.14-2.542 2.541v6.678c0.004 1.402 1.14 2.538 2.541 2.542h0z"></path>
<path fill="#fb0" style="fill: var(--color1, #fb0)" d="M23.743 24.543c0.062 0.002 0.136 0.003 0.21 0.003 0.164 0 0.326-0.006 0.487-0.018l-0.022 0.001c1.221-0.111 2.214-0.971 2.521-2.112l0.005-0.020c0.061-0.253 0.096-0.543 0.096-0.841 0-0.046-0.001-0.091-0.002-0.136l0 0.007v-6.375c0-0.007 0-0.015 0-0.023 0-1.382-0.962-2.539-2.252-2.839l-0.020-0.004c-0.231-0.043-0.496-0.067-0.767-0.067-0.048 0-0.097 0.001-0.145 0.002l0.007-0c-0.021-0.001-0.046-0.001-0.072-0.001-0.321 0-0.63 0.048-0.922 0.136l0.022-0.006c-0.758 0.245-1.365 0.772-1.71 1.453l-0.008 0.017c-0.205 0.52-0.324 1.122-0.324 1.751 0 0.172 0.009 0.341 0.026 0.508l-0.002-0.021v5.538c-0.001 0.031-0.002 0.067-0.002 0.103 0 0.381 0.066 0.747 0.188 1.087l-0.007-0.023c0.423 1.098 1.465 1.865 2.688 1.875h0.001c0.18 0 0.326-0.146 0.326-0.326s-0.146-0.326-0.326-0.326v0c-1.227-0.015-2.216-1.014-2.216-2.243 0-0.001 0-0.002 0-0.003v0-1.916c0-1.578-0.013-3.152 0-4.729 0.003-0.647 0.279-1.23 0.72-1.637l0.001-0.001c0.409-0.36 0.95-0.579 1.541-0.579 0.034 0 0.069 0.001 0.103 0.002l-0.005-0c0.045-0.002 0.097-0.004 0.15-0.004 0.233 0 0.46 0.025 0.679 0.072l-0.021-0.004c0.974 0.247 1.684 1.116 1.685 2.151v0c0.013 1.548 0 3.093 0 4.641v1.991c0 0.007 0 0.016 0 0.025 0 0.483-0.151 0.931-0.409 1.299l0.005-0.007c-0.371 0.527-0.955 0.881-1.625 0.939l-0.008 0.001c-0.202 0.013-0.404 0-0.606 0-0.179 0.002-0.324 0.148-0.324 0.328 0 0.181 0.147 0.328 0.328 0.328 0.002 0 0.003 0 0.005-0h-0z"></path>
<path fill="#fb0" style="fill: var(--color1, #fb0)" d="M2.871 24.217h0.433c1.402-0.004 2.538-1.14 2.542-2.541v-6.678c-0.004-1.402-1.14-2.538-2.541-2.542h-0.433c-1.402 0.004-2.538 1.14-2.542 2.541v6.678c0.004 1.402 1.14 2.538 2.541 2.542h0z"></path>
<path fill="#fb0" style="fill: var(--color1, #fb0)" d="M2.871 24.543c0.062 0.002 0.136 0.003 0.21 0.003 0.164 0 0.326-0.006 0.487-0.018l-0.022 0.001c1.221-0.111 2.214-0.971 2.521-2.112l0.005-0.020c0.062-0.254 0.097-0.547 0.097-0.847 0-0.044-0.001-0.087-0.002-0.13l0 0.006v-6.375c0-0.007 0-0.015 0-0.023 0-1.382-0.962-2.539-2.252-2.839l-0.020-0.004c-0.231-0.043-0.496-0.067-0.767-0.067-0.049 0-0.097 0.001-0.146 0.002l0.007-0c-0.021-0.001-0.046-0.001-0.072-0.001-0.321 0-0.63 0.048-0.922 0.136l0.022-0.006c-0.758 0.245-1.365 0.772-1.71 1.453l-0.008 0.017c-0.205 0.52-0.324 1.122-0.324 1.751 0 0.172 0.009 0.341 0.026 0.508l-0.002-0.021v5.538c-0.001 0.031-0.002 0.067-0.002 0.103 0 0.381 0.066 0.747 0.188 1.086l-0.007-0.023c0.423 1.098 1.465 1.865 2.688 1.875h0.001c0.18 0 0.326-0.146 0.326-0.326s-0.146-0.326-0.326-0.326v0c-1.227-0.015-2.216-1.014-2.216-2.243 0-0.001 0-0.002 0-0.003v0-1.916c0-1.578-0.013-3.152 0-4.729 0.003-0.647 0.279-1.23 0.72-1.637l0.001-0.001c0.409-0.36 0.95-0.579 1.541-0.579 0.034 0 0.069 0.001 0.103 0.002l-0.005-0c0.045-0.002 0.097-0.004 0.15-0.004 0.233 0 0.46 0.025 0.679 0.072l-0.021-0.004c0.975 0.247 1.684 1.116 1.685 2.151v0c0.013 1.548 0 3.093 0 4.641v1.991c0 0.007 0 0.016 0 0.025 0 0.483-0.151 0.931-0.409 1.299l0.005-0.007c-0.371 0.527-0.955 0.881-1.625 0.939l-0.008 0.001c-0.202 0.013-0.404 0-0.606 0-0.179 0.002-0.324 0.148-0.324 0.328 0 0.181 0.147 0.328 0.328 0.328 0.002 0 0.003 0 0.005-0h-0z"></path>
<path fill="#fb0" style="fill: var(--color1, #fb0)" d="M1.958 21.676v-7.705c-0.001-0.071-0.002-0.155-0.002-0.238 0-0.668 0.042-1.327 0.124-1.974l-0.008 0.077c-0.013 0.088-0.023 0.173-0.036 0.261 0.165-1.186 0.471-2.258 0.904-3.262l-0.031 0.081-0.098 0.235c0.282-0.661 0.574-1.216 0.904-1.746l-0.031 0.054c0.163-0.264 0.332-0.518 0.515-0.769 0.046-0.065 0.095-0.127 0.144-0.189l0.052-0.068c0.104-0.144-0.156 0.199-0.049 0.062s0.196-0.248 0.3-0.365c0.409-0.483 0.837-0.918 1.293-1.321l0.014-0.012c0.114-0.098 0.228-0.196 0.345-0.288 0.055-0.046 0.111-0.091 0.166-0.134s0.196-0.144-0.062 0.046l0.104-0.078c0.251-0.189 0.512-0.372 0.779-0.541 0.533-0.347 1.149-0.678 1.793-0.956l0.082-0.032-0.235 0.098c0.923-0.402 1.995-0.708 3.115-0.865l0.066-0.008-0.261 0.036c0.504-0.072 1.086-0.112 1.677-0.112s1.173 0.041 1.743 0.12l-0.066-0.007-0.261-0.036c1.186 0.165 2.258 0.471 3.262 0.904l-0.081-0.031-0.235-0.098c0.661 0.282 1.216 0.574 1.746 0.904l-0.054-0.031c0.264 0.163 0.518 0.332 0.769 0.515 0.065 0.046 0.127 0.095 0.189 0.144l0.068 0.052c0.144 0.104-0.199-0.156-0.062-0.049s0.248 0.196 0.365 0.3c0.483 0.409 0.918 0.837 1.321 1.293l0.012 0.014c0.098 0.114 0.196 0.228 0.288 0.345 0.046 0.055 0.091 0.111 0.134 0.166s0.144 0.196-0.046-0.062l0.078 0.104c0.189 0.251 0.372 0.512 0.541 0.779 0.347 0.533 0.678 1.149 0.956 1.793l0.032 0.082-0.098-0.235c0.402 0.923 0.708 1.995 0.865 3.115l0.008 0.066c-0.013-0.088-0.023-0.173-0.036-0.261 0.074 0.585 0.116 1.262 0.116 1.949 0 0.086-0.001 0.172-0.002 0.258l0-0.013v8.246c0.006 0.155 0.009 0.338 0.009 0.521 0 0.481-0.023 0.957-0.069 1.426l0.005-0.060c0.013-0.088 0.023-0.173 0.036-0.261-0.080 0.554-0.221 1.054-0.419 1.524l0.015-0.041 0.098-0.235c-0.167 0.393-0.351 0.729-0.565 1.044l0.014-0.021c-0.052 0.078-0.108 0.153-0.16 0.228-0.121 0.169 0.144-0.176 0.036-0.046-0.026 0.033-0.052 0.068-0.081 0.101-0.124 0.144-0.251 0.288-0.388 0.433s-0.28 0.267-0.433 0.388c-0.033 0.026-0.065 0.055-0.101 0.081-0.134 0.108 0.192-0.144 0.062-0.049-0.081 0.059-0.163 0.117-0.244 0.173-0.294 0.2-0.63 0.384-0.983 0.536l-0.039 0.015 0.235-0.098c-0.429 0.183-0.929 0.324-1.45 0.4l-0.033 0.004 0.261-0.036c-0.36 0.039-0.778 0.061-1.201 0.061-0.136 0-0.271-0.002-0.405-0.007l0.020 0.001h-2.487c-0.54 0-0.978 0.438-0.978 0.978s0.438 0.978 0.978 0.978v0h2.487c0.313 0 0.629 0 0.942 0 0.956-0.031 1.855-0.245 2.672-0.608l-0.045 0.018c1.514-0.667 2.715-1.816 3.43-3.249l0.018-0.040c0.374-0.753 0.626-1.631 0.705-2.558l0.002-0.027c0.020-0.241 0.020-0.482 0.020-0.721v-9.633c0-0.005 0-0.010 0-0.016 0-1.688-0.314-3.302-0.888-4.788l0.031 0.091c-0.618-1.599-1.458-2.976-2.498-4.173l0.014 0.017c-1.009-1.155-2.191-2.127-3.512-2.882l-0.067-0.035c-1.28-0.737-2.774-1.28-4.362-1.54l-0.077-0.010c-0.65-0.108-1.399-0.169-2.162-0.169-1.022 0-2.019 0.111-2.979 0.32l0.092-0.017c-1.638 0.364-3.086 0.98-4.38 1.815l0.053-0.032c-1.357 0.874-2.508 1.929-3.458 3.15l-0.023 0.031c-1.756 2.244-2.816 5.107-2.816 8.217 0 0.024 0 0.047 0 0.071v-0.004 8.111c0.006 0.538 0.441 0.972 0.977 0.978h0.001c0.001 0 0.002 0 0.003 0 0.535 0 0.969-0.431 0.975-0.965v-0.001z"></path>
<path fill="#fb0" style="fill: var(--color1, #fb0)" d="M16.803 29.337c0 1.115-0.904 2.020-2.020 2.020v0h-2.19c-0 0-0.001 0-0.002 0-0.555 0-1.057-0.226-1.419-0.59l-0-0c-0.371-0.366-0.6-0.875-0.6-1.437 0-1.115 0.904-2.020 2.020-2.020 0.006 0 0.011 0 0.017 0h2.186c1.114 0.010 2.014 0.912 2.020 2.026v0.001z"></path>
<path fill="#fb0" style="fill: var(--color1, #fb0)" d="M16.152 29.337c0 0.046 0 0.091 0 0.137 0 0.016 0 0.029 0 0.046 0 0.072 0 0.059 0-0.042-0.008 0.080-0.024 0.152-0.048 0.222l0.002-0.007c0 0.020-0.049 0.202-0.068 0.205 0.010-0.026 0.023-0.052 0.033-0.075-0.013 0.026-0.023 0.052-0.036 0.078s-0.039 0.075-0.062 0.114-0.042 0.072-0.068 0.108c0 0.013-0.016 0.023-0.023 0.036-0.033 0.046-0.033 0.046 0 0 0.010-0.010 0.016-0.023 0.026-0.033-0.016 0.023-0.036 0.042-0.055 0.065l-0.085 0.094c-0.049 0.052-0.104 0.098-0.156 0.144-0.104 0.091 0.095-0.052 0.013-0.013-0.042 0.023-0.081 0.055-0.124 0.081s-0.124 0.068-0.189 0.101c-0.134 0.068 0.144-0.046 0 0-0.041 0.012-0.074 0.024-0.107 0.038l0.006-0.002c-0.078 0.023-0.153 0.039-0.235 0.055-0.127 0.029 0.042 0 0.042 0s-0.16 0.013-0.179 0.013c-0.098 0-0.192 0-0.289 0h-1.995c-0.046 0-0.088 0-0.134 0s-0.036 0 0.042 0l-0.101-0.020c-0.1-0.022-0.183-0.045-0.265-0.073l0.016 0.005c-0.16-0.049 0.117 0.065-0.033-0.010-0.036-0.020-0.075-0.036-0.111-0.059-0.088-0.041-0.164-0.089-0.233-0.146l0.002 0.002c0.101 0.098 0.036 0.029 0.016 0.010-0.049-0.046-0.098-0.088-0.144-0.137s-0.055-0.062-0.085-0.095c-0.068-0.072 0.081 0.127 0 0-0.046-0.072-0.091-0.144-0.13-0.215-0.023-0.039-0.045-0.084-0.063-0.131l-0.002-0.006c0.055 0.156 0-0.010 0-0.033-0.038-0.088-0.063-0.19-0.072-0.297l-0-0.003c0 0.144 0 0.052 0 0.016s0-0.108 0-0.16c-0.002-0.019-0.003-0.042-0.003-0.065 0-0.057 0.006-0.112 0.016-0.166l-0.001 0.005c-0.003 0.033-0.008 0.062-0.014 0.090l0.001-0.005c0.004-0.034 0.010-0.064 0.017-0.094l-0.001 0.006c0-0.029 0.013-0.059 0.020-0.085s0.023-0.085 0.036-0.124 0.052-0.189 0.026-0.085 0.010-0.020 0.020-0.039 0.039-0.075 0.062-0.114 0.098-0.183 0.117-0.179l-0.049 0.065c0.016-0.023 0.036-0.042 0.055-0.065s0.036-0.042 0.055-0.062c0.058-0.060 0.119-0.117 0.182-0.17l0.004-0.003c0.111-0.098-0.121 0.078 0 0 0.036-0.023 0.072-0.049 0.108-0.068 0.062-0.036 0.124-0.068 0.189-0.101 0.124-0.065-0.104 0.026-0.016 0 0.033 0 0.068-0.026 0.101-0.036 0.066-0.021 0.152-0.043 0.239-0.060l0.015-0.002c0.144-0.033-0.153 0.010 0 0h2.399c0.046 0 0.088 0 0.134 0 0.075 0 0.068 0-0.016 0l0.101 0.020c0.107 0.012 0.205 0.043 0.293 0.090l-0.004-0.002c-0.088-0.068-0.059-0.029-0.016 0 0.070 0.033 0.128 0.065 0.184 0.1l-0.008-0.004 0.104 0.068c0.137 0.095-0.046-0.052 0.046 0.036s0.144 0.144 0.212 0.212c0.114 0.117-0.068-0.111 0.020 0.026 0.026 0.042 0.055 0.082 0.081 0.127s0.049 0.088 0.072 0.134 0.098 0.137 0.016 0.029c0.043 0.084 0.074 0.181 0.088 0.284l0 0.004c0 0.036 0.062 0.186 0.010 0.033 0.004 0.030 0.006 0.064 0.006 0.1s-0.002 0.070-0.007 0.104l0-0.004c0.032 0.333 0.311 0.591 0.649 0.591s0.617-0.258 0.649-0.588l0-0.003c-0.008-1.039-0.603-1.937-1.471-2.379l-0.015-0.007c-0.349-0.173-0.76-0.275-1.194-0.28h-1.877c-0.047-0.003-0.102-0.004-0.158-0.004-0.521 0-1.013 0.126-1.447 0.348l0.018-0.008c-0.82 0.465-1.364 1.332-1.364 2.326 0 0.935 0.481 1.757 1.209 2.233l0.010 0.006c0.446 0.275 0.986 0.437 1.565 0.437 0.059 0 0.117-0.002 0.174-0.005l-0.008 0h1.443c0.071 0.005 0.154 0.008 0.238 0.008 0.538 0 1.048-0.119 1.505-0.333l-0.022 0.009c0.84-0.463 1.401-1.34 1.408-2.349v-0.001c-0.003-0.359-0.293-0.649-0.652-0.652h-0c-0.356 0.003-0.646 0.284-0.663 0.636l-0 0.002z"></path>
</symbol>
<symbol id="icon-ads" viewBox="0 0 39 32">
<path fill="#fb0" style="fill: var(--color1, #fb0)" d="M34.459 14.769h3.692c0.013 0.001 0.029 0.001 0.045 0.001 0.68 0 1.231-0.551 1.231-1.231s-0.551-1.231-1.231-1.231c-0.016 0-0.032 0-0.047 0.001l0.002-0h-3.692c-0.013-0.001-0.029-0.001-0.045-0.001-0.68 0-1.231 0.551-1.231 1.231s0.551 1.231 1.231 1.231c0.016 0 0.032-0 0.047-0.001l-0.002 0z"></path>
<path fill="#fb0" style="fill: var(--color1, #fb0)" d="M34.459 8.618c0.001 0 0.001 0 0.002 0 0.253 0 0.488-0.077 0.683-0.209l-0.004 0.003 3.692-2.461c0.353-0.221 0.584-0.607 0.584-1.048 0-0.68-0.551-1.231-1.231-1.231-0.27 0-0.519 0.087-0.722 0.234l0.004-0.002-3.692 2.459c-0.331 0.224-0.546 0.598-0.546 1.023 0 0.68 0.551 1.231 1.23 1.231h0z"></path>
<path fill="#fb0" style="fill: var(--color1, #fb0)" d="M38.833 21.13l-3.692-2.461c-0.199-0.145-0.449-0.231-0.718-0.231-0.68 0-1.231 0.551-1.231 1.231 0 0.441 0.231 0.827 0.579 1.045l0.005 0.003 3.692 2.461c0.199 0.145 0.449 0.231 0.718 0.231 0.68 0 1.231-0.551 1.231-1.231 0-0.441-0.231-0.827-0.579-1.045l-0.005-0.003z"></path>
<path fill="#fb0" style="fill: var(--color1, #fb0)" d="M29.536 9.848h-3.692v-8.615c0-0 0-0.001 0-0.001 0-0.68-0.551-1.231-1.231-1.231-0.241 0-0.466 0.069-0.656 0.189l0.005-0.003-9.547 5.969h-10.723c-2.038 0.002-3.69 1.654-3.692 3.692v7.384c0.002 2.038 1.654 3.69 3.692 3.692h1.231v9.846c0 0.68 0.551 1.231 1.231 1.231v0h6.164c0.68-0 1.23-0.551 1.23-1.231 0-0.199-0.047-0.387-0.131-0.554l0.003 0.007-1.114-3.345v-5.949h2.109l9.547 5.964c0.185 0.117 0.41 0.186 0.651 0.186 0.68 0 1.231-0.551 1.231-1.231 0-0 0-0.001 0-0.001v0-8.615h3.692c0.68 0 1.231-0.551 1.231-1.231v0-4.921c0-0.68-0.551-1.231-1.231-1.231v0zM2.461 17.231v-7.384c0-0.68 0.551-1.231 1.231-1.231v0h9.846v9.846h-9.846c-0.68 0-1.231-0.551-1.231-1.231v0zM9.905 27.465l0.692 2.072h-3.214v-8.615h2.462v6.152c0 0.002-0 0.004-0 0.007 0 0.137 0.022 0.269 0.064 0.392l-0.003-0.009zM23.38 23.625l-7.382-4.614v-10.943l7.384-4.616zM28.303 14.769h-2.459v-2.461h2.461z"></path>
</symbol>
<symbol id="icon-search" viewBox="0 0 35 32">
<path fill="#fb0" style="fill: var(--color1, #fb0)" d="M1.454 2.909h32c0.803 0 1.454-0.651 1.454-1.454s-0.651-1.454-1.454-1.454v0h-32c-0.803 0-1.454 0.651-1.454 1.454s0.651 1.454 1.454 1.454v0zM21.818 10.182h11.636c0.803 0 1.454-0.651 1.454-1.454s-0.651-1.454-1.454-1.454v0h-11.636c-0.803 0-1.454 0.651-1.454 1.454s0.651 1.454 1.454 1.454v0zM24.727 17.455h8.728c0.803 0 1.454-0.651 1.454-1.454s-0.651-1.454-1.454-1.454h-8.728c-0.803 0-1.454 0.651-1.454 1.454s0.651 1.454 1.454 1.454v0zM24.727 24.728h8.728c0.803 0 1.454-0.651 1.454-1.454s-0.651-1.454-1.454-1.454h-8.728c-0.803 0-1.454 0.651-1.454 1.454s0.651 1.454 1.454 1.454v0zM10.182 26.181c5.623 0 10.182-4.559 10.182-10.182s-4.559-10.182-10.182-10.182c-5.623 0-10.182 4.559-10.182 10.182 0 0.001 0 0.001 0 0.002v-0c0.009 5.619 4.562 10.173 10.181 10.18h0.001zM10.182 8.726c4.017 0 7.273 3.256 7.273 7.273s-3.256 7.273-7.273 7.273c-4.016 0-7.272-3.255-7.273-7.271v-0c0.005-4.015 3.258-7.268 7.273-7.273h0zM24.727 31.998c0 0 0 0 0.001 0 0.803 0 1.454-0.651 1.454-1.454 0-0.402-0.163-0.765-0.426-1.029l-7.272-7.27c-0.263-0.263-0.627-0.426-1.029-0.426-0.803 0-1.455 0.651-1.455 1.455 0 0.402 0.163 0.765 0.426 1.029l7.273 7.273c0.263 0.263 0.626 0.426 1.027 0.426 0.001 0 0.001 0 0.002 0h-0z"></path>
</symbol>
</defs>
</svg>
